<svg xmlns="http://www.w3.org/2000/svg" fill="none" viewBox="0 0 512 512">
  <g clip-path="url(#clip0)">
    <path fill="#008EC7" d="M447.4 118H70.6L6 253.5 70.6 389h376.8L512 253.5 447.4 118zm-21.6 248.5h-341L31 253.5l53.8-113h341l53.9 113-53.9 113z"/>
    <path fill="#005B9B" d="M479.7 253.5l-53.9 113h-341L31 253.5l53.8-113h341l53.9 113z"/>
    <path fill="#fff" d="M179.4 215.4v80.7h-18.7V263h-36.5v33h-18.7v-80.6H124v31.8h36.6v-31.8h18.7zM215.2 230.6h-25.8v-15.2h70.2v15.2H234v65.5h-18.7v-65.5zM287.5 230.6h-25.8v-15.2h70.2v15.2h-25.8v65.5h-18.6v-65.5zM395.4 219c5 2.1 9.2 5.6 12.2 10.1a28 28 0 014.3 15.6c0 5.5-1.4 10.8-4.3 15.5-3 4.5-7.2 8-12.2 10.1a45.4 45.4 0 01-18.6 3.5h-16.2v22.3H342v-80.7h34.8c6.4-.1 12.8 1 18.6 3.6zm-6.8 36a12.6 12.6 0 004.4-10.3c0-4.5-1.5-8-4.4-10.4-3-2.5-7.2-3.7-12.8-3.7h-15.2v28h15.2c5.6 0 9.9-1.2 12.8-3.6z"/>
  </g>
  <defs>
    <clipPath id="clip0">
      <path fill="#fff" d="M0 0h512v512H0z"/>
    </clipPath>
  </defs>
</svg>
